# xmcd
#
# Track frame offsets:
#  150
#  11214
#  21171
#  33106
#  42482
#  53815
#  63481
#  73266
#  84605
#  94650
#  103021
#  113330
#  122513
#  133431
#  145170
#  155787
#  166319
#  177442
#  189051
#  202566
#  213510
#  223328
#  235423
#  246384
#  257095
#
# Disc length: 3561 seconds
#
# Revision: 0
# Processed by: cddbd v1.5.1PL2 Copyright (c) Steve Scherf et al.
# Submitted via: Collectorz.com_Music_Collector 6.9
#
DISCID=6e0de719
DTITLE=Various Artist - Doo-Bop-Jivers - Volume 03
DYEAR=1996
DGENRE=Doo-Wop
TTITLE0=Gaylords, The - Magic Song
TTITLE1=Falcons, The - Jigsaw Puzzle
TTITLE2=Rotators, The - Double Exposure
TTITLE3=Schooners, The - Viddy Biddy Baby
TTITLE4=Five Crowns, The - Popcorn Willie
TTITLE5=Anita and The Tuckers - Slow, Smooth and Easy
TTITLE6=Deltones, The - Early Morning Rock
TTITLE7=Four Mints, The - Whatcha Gonna Do
TTITLE8=Dubs, The - Such Lovin'
TTITLE9=Crests, The - Good Golly Miss Molly
TTITLE10=Crew Cuts, The - Shine
TTITLE11=Jackson, B. M. and Brothers - Watch My Signal
TTITLE12=Cues, The - Crazy Crazy Party
TTITLE13=Goofers, The - Flip, Flop And Fly
TTITLE14=Willows, The - Church Bells May Ring
TTITLE15=Cardinals, The - Misirlou
TTITLE16=Delighters, The - Somebody Help Me
TTITLE17=Wanderers, The - Somebody Else's Sweetheart
TTITLE18=Martiniques, The - Broken Hearted Me
TTITLE19=Tip Tops, The - Oo-KooK-A-Boo
TTITLE20=Dramatics, The - Toy Soldier
TTITLE21=Radiants, The - One Day I'll Show You
TTITLE22=Pacesetters, The - Say Sayonara
TTITLE23=Cleftones, The - For Sentimental Reasons
TTITLE24=Coasters, The - Besame Mucho
EXTD=
EXTT0=
EXTT1=
EXTT2=
EXTT3=
EXTT4=
EXTT5=
EXTT6=
EXTT7=
EXTT8=
EXTT9=
EXTT10=
EXTT11=
EXTT12=
EXTT13=
EXTT14=
EXTT15=
EXTT16=
EXTT17=
EXTT18=
EXTT19=
EXTT20=
EXTT21=
EXTT22=
EXTT23=
EXTT24=
PLAYORDER=
